<svg width="20" height="21" viewBox="0 0 20 21" fill="none" xmlns="http://www.w3.org/2000/svg">
<path d="M10.0664 2.69067C8.50006 2.69067 6.96893 3.15514 5.66659 4.02533C4.36425 4.89553 3.3492 6.13237 2.7498 7.57945C2.1504 9.02653 1.99357 10.6189 2.29915 12.1551C2.60472 13.6913 3.35897 15.1024 4.46651 16.2099C5.57406 17.3175 6.98516 18.0717 8.52137 18.3773C10.0576 18.6829 11.6499 18.526 13.097 17.9266C14.5441 17.3272 15.7809 16.3122 16.6511 15.0098C17.5213 13.7075 17.9858 12.1764 17.9858 10.6101C17.9835 8.5104 17.1485 6.49735 15.6638 5.01266C14.1791 3.52797 12.166 2.69289 10.0664 2.69067ZM10.0664 17.3111C8.74103 17.3111 7.44546 16.9181 6.34348 16.1818C5.2415 15.4454 4.38261 14.3989 3.87543 13.1744C3.36825 11.95 3.23554 10.6026 3.4941 9.30276C3.75266 8.00289 4.39087 6.80888 5.32803 5.87173C6.26519 4.93457 7.45919 4.29636 8.75907 4.0378C10.0589 3.77924 11.4063 3.91194 12.6307 4.41913C13.8552 4.92631 14.9018 5.7852 15.6381 6.88718C16.3744 7.98916 16.7674 9.28473 16.7674 10.6101C16.7654 12.3867 16.0587 14.0899 14.8025 15.3462C13.5462 16.6024 11.843 17.3091 10.0664 17.3111ZM7.62963 10.6101C7.62963 11.1215 7.79055 11.62 8.08959 12.0349C8.38862 12.4497 8.81062 12.76 9.29581 12.9218C9.78099 13.0835 10.3048 13.0885 10.7929 12.936C11.2811 12.7835 11.7089 12.4813 12.0158 12.0721C12.1128 11.9429 12.2572 11.8574 12.4172 11.8347C12.5772 11.8119 12.7397 11.8536 12.869 11.9507C12.9983 12.0477 13.0837 12.1921 13.1064 12.3521C13.1292 12.5121 13.0875 12.6746 12.9905 12.8039C12.5301 13.4174 11.8883 13.8706 11.1561 14.0991C10.4239 14.3277 9.63831 14.3201 8.91065 14.0775C8.18298 13.8348 7.5501 13.3694 7.10163 12.7471C6.65316 12.1248 6.41184 11.3771 6.41184 10.6101C6.41184 9.84301 6.65316 9.09539 7.10163 8.47308C7.5501 7.85078 8.18298 7.38534 8.91065 7.14268C9.63831 6.90002 10.4239 6.89244 11.1561 7.12101C11.8883 7.34958 12.5301 7.80271 12.9905 8.41624C13.0385 8.48024 13.0735 8.55308 13.0934 8.6306C13.1133 8.70811 13.1177 8.78879 13.1064 8.86802C13.0952 8.94725 13.0684 9.02348 13.0276 9.09237C12.9869 9.16125 12.933 9.22143 12.869 9.26948C12.805 9.31753 12.7322 9.35251 12.6546 9.37241C12.5771 9.39231 12.4965 9.39674 12.4172 9.38547C12.338 9.37419 12.2618 9.34741 12.1929 9.30667C12.124 9.26593 12.0638 9.21203 12.0158 9.14803C11.7089 8.73888 11.2811 8.43666 10.7929 8.28417C10.3048 8.13168 9.78099 8.13665 9.29581 8.29838C8.81062 8.4601 8.38862 8.77039 8.08959 9.18528C7.79055 9.60018 7.62963 10.0986 7.62963 10.6101Z" fill="white"/>
</svg>
