<svg width="56" height="57" viewBox="0 0 56 57" fill="none" xmlns="http://www.w3.org/2000/svg">
<path d="M53.5745 0.68103H2.43348C1.2036 0.68103 0.209961 1.67467 0.209961 2.90455V54.0456C0.209961 55.2755 1.2036 56.2691 2.43348 56.2691H53.5745C54.8044 56.2691 55.798 55.2755 55.798 54.0456V2.90455C55.798 1.67467 54.8044 0.68103 53.5745 0.68103ZM51.351 51.822H38.5588V34.7426H45.7852L46.8692 26.3558H38.5588V20.9985C38.5588 18.5665 39.2328 16.9127 42.714 16.9127H47.1541V9.40836C46.3828 9.30413 43.7493 9.07483 40.6781 9.07483C34.2715 9.07483 29.887 12.9868 29.887 20.1646V26.3488H22.6467V34.7357H29.894V51.822H4.65701V5.12808H51.351V51.822Z" fill="white"/>
</svg>
