<svg width="26" height="26" viewBox="0 0 26 26" fill="none" xmlns="http://www.w3.org/2000/svg">
<g clip-path="url(#clip0_12_375)">
<g clip-path="url(#clip1_12_375)">
<g clip-path="url(#clip2_12_375)">
<path d="M3.83224 25.5H22.1643C22.8546 25.5 23.4142 24.9404 23.4142 24.2501V10.1902L23.5621 10.2881C23.8339 10.4758 24.1709 10.5435 24.4941 10.4756C24.8267 10.4068 25.1168 10.2052 25.2974 9.91768L25.2999 9.91352C25.666 9.32373 25.5057 8.55055 24.9354 8.15489L13.6841 0.71001C13.2708 0.429997 12.7286 0.429997 12.3154 0.71001L1.05781 8.15868C0.488624 8.55567 0.330374 9.32905 0.69785 9.91773C0.876491 10.2051 1.16492 10.4068 1.49612 10.476C1.57937 10.4928 1.66411 10.5012 1.74902 10.501C1.99184 10.5014 2.22913 10.4288 2.43023 10.2927L2.58229 10.1906V24.2501C2.58229 24.9404 3.1419 25.5 3.83224 25.5ZM22.5809 24.2501C22.5809 24.4802 22.3944 24.6667 22.1643 24.6667H3.83224C3.60212 24.6667 3.4156 24.4802 3.4156 24.2501V9.63982L12.9983 3.3069L22.5809 9.63982V24.2501ZM1.96608 9.599C1.87887 9.6593 1.77064 9.68101 1.66692 9.65901C1.55746 9.63614 1.46223 9.56924 1.40362 9.47401C1.2717 9.26825 1.32305 8.99534 1.52068 8.85154L12.7787 1.40249C12.8434 1.35849 12.92 1.33501 12.9983 1.33501C13.0781 1.33534 13.156 1.35956 13.222 1.4046L24.4725 8.84951C24.6717 8.99191 24.7251 9.26508 24.5941 9.47199C24.5341 9.56837 24.4374 9.6361 24.3263 9.65946C24.2218 9.68023 24.1134 9.65736 24.0263 9.59615L13.2282 2.45989C13.089 2.36896 12.9092 2.36896 12.77 2.45989L1.96608 9.599Z" fill="#ED7E1B"/>
<path d="M9.5174 8.36239C9.03352 7.88083 8.25139 7.88083 7.76752 8.36239L5.44437 10.6855C4.96256 11.1693 4.96256 11.9516 5.44437 12.4354L9.21452 16.2089L6.89549 18.5284C6.84522 18.5782 6.80861 18.6402 6.78925 18.7084L5.81807 22.1086C5.74902 22.3498 5.79727 22.6095 5.94834 22.8099C6.09941 23.0102 6.33584 23.1281 6.58675 23.1281C6.661 23.1279 6.73489 23.1175 6.80634 23.0972L10.2065 22.1252C10.2746 22.1059 10.3366 22.0693 10.3865 22.019L12.7064 19.7008L16.4774 23.4722C16.9614 23.9536 17.7433 23.9536 18.2272 23.4722L20.5504 21.1491C21.0322 20.6653 21.0322 19.883 20.5504 19.3992L16.7815 15.6257L19.9717 12.4355C20.2814 12.1263 20.4554 11.7066 20.4554 11.2689C20.4554 10.8313 20.2814 10.4116 19.9717 10.1024L18.8101 8.94079C18.5014 8.63035 18.0813 8.45646 17.6435 8.4579C17.2058 8.45642 16.7857 8.63015 16.477 8.94037L13.2897 12.1339L9.5174 8.36239ZM8.06252 20.8524C7.81742 20.6096 7.5242 20.4209 7.20176 20.2983L7.46093 19.3904L8.90582 20.0095L9.52495 21.4544L8.6171 21.7136C8.49434 21.3909 8.30542 21.0976 8.06252 20.8524ZM9.71697 19.7874L15.9019 13.6025L16.7648 14.4653L10.2344 20.9953L9.71697 19.7874ZM15.0395 11.5613L15.9024 10.6985L18.2173 13.0133L17.354 13.8758L15.0395 11.5613ZM15.3133 13.0133L9.12784 19.1983L7.91958 18.6808L14.45 12.1505L15.3133 13.0133ZM6.03349 11.8467C5.87553 11.6886 5.87553 11.4324 6.03349 11.2743L8.35665 8.95111C8.51477 8.79314 8.77097 8.79314 8.9291 8.95111L9.79613 9.81814L8.9291 10.6852C8.82079 10.7898 8.77737 10.9447 8.81547 11.0904C8.8536 11.236 8.96736 11.3498 9.11302 11.3879C9.25868 11.4261 9.41359 11.3826 9.51822 11.2743L10.3853 10.4073L11.2481 11.271L10.6715 11.8476C10.5632 11.9522 10.5198 12.1071 10.5579 12.2528C10.596 12.3984 10.7098 12.5122 10.8554 12.5503C11.0011 12.5885 11.156 12.545 11.2606 12.4367L11.8373 11.8601L12.7001 12.723L9.80447 15.6186L6.03349 11.8467ZM6.63595 22.2794L6.96925 21.1045C7.34783 21.2641 7.64906 21.5654 7.8088 21.944L6.63595 22.2794ZM17.0552 17.0789L16.4786 17.6555C16.3703 17.7601 16.3269 17.915 16.365 18.0607C16.4031 18.2064 16.5169 18.3201 16.6625 18.3583C16.8082 18.3964 16.9631 18.3529 17.0677 18.2446L17.6444 17.6672L18.5072 18.5301L17.6402 19.3971C17.5319 19.5017 17.4885 19.6566 17.5266 19.8023C17.5647 19.948 17.6784 20.0617 17.8241 20.0998C17.9698 20.138 18.1247 20.0945 18.2293 19.9862L19.0963 19.1192L19.9629 19.9862C20.1209 20.1443 20.1209 20.4005 19.9629 20.5586L17.6398 22.8818C17.4816 23.0398 17.2254 23.0398 17.0673 22.8818L13.2963 19.1108L16.192 16.2152L17.0552 17.0789ZM17.6439 9.29274C17.8603 9.29204 18.068 9.37802 18.2206 9.53148L19.3821 10.6931C19.7002 11.0115 19.7002 11.5274 19.3821 11.8459L18.8059 12.4242L16.4911 10.1093L17.0677 9.53272C17.22 9.37897 17.4275 9.29254 17.6439 9.29274Z" fill="#ED7E1B"/>
</g>
</g>
</g>
<defs>
<clipPath id="clip0_12_375">
<rect width="25" height="25" fill="white" transform="translate(0.5 0.5)"/>
</clipPath>
<clipPath id="clip1_12_375">
<rect width="25" height="25" fill="white" transform="translate(0.5 0.5)"/>
</clipPath>
<clipPath id="clip2_12_375">
<rect width="25" height="25" fill="white" transform="translate(0.5 0.5)"/>
</clipPath>
</defs>
</svg>
