<svg width="26" height="24" viewBox="0 0 26 24" fill="none" xmlns="http://www.w3.org/2000/svg">
<g clip-path="url(#clip0_12_383)">
<g clip-path="url(#clip1_12_383)">
<g clip-path="url(#clip2_12_383)">
<path d="M20.491 5.62546C21.9041 5.62546 23.0537 4.47583 23.0537 3.06273C23.0537 1.64963 21.9041 0.5 20.491 0.5C19.0779 0.5 17.9282 1.64963 17.9282 3.06273C17.9282 4.47583 19.0779 5.62546 20.491 5.62546ZM20.491 1.23597C21.4982 1.23597 22.3177 2.05544 22.3177 3.06273C22.3177 4.07002 21.4982 4.88949 20.491 4.88949C19.4837 4.88949 18.6642 4.07002 18.6642 3.06273C18.6642 2.05544 19.4837 1.23597 20.491 1.23597Z" fill="#ED7E1B"/>
<path d="M4.41845 6.69467C4.78457 6.69467 5.14152 6.60803 5.46377 6.44238C5.75477 6.60807 6.08183 6.69467 6.42249 6.69467C6.75765 6.69467 7.07912 6.61102 7.36629 6.45068C7.61784 6.6094 7.90924 6.69467 8.21049 6.69467C9.08624 6.69467 9.7987 5.98221 9.7987 5.10646C9.7987 4.23071 9.08624 3.51825 8.21049 3.51825C8.12154 3.51825 8.03288 3.52585 7.9451 3.54101C7.57918 3.08138 7.01818 2.80524 6.42249 2.80524C6.30998 2.80524 6.19822 2.81486 6.08826 2.8339C5.6563 2.37225 5.06007 2.11182 4.41841 2.11182C3.1549 2.11182 2.12695 3.13976 2.12695 4.40322C2.12695 5.66668 3.15495 6.69467 4.41845 6.69467ZM4.41845 2.84778C4.91013 2.84778 5.3626 3.07318 5.65983 3.46619C5.75345 3.58993 5.91462 3.64169 6.0627 3.59557C6.17859 3.55951 6.29968 3.54121 6.42254 3.54121C6.85278 3.54121 7.25408 3.77323 7.46982 4.14676C7.55946 4.3019 7.74777 4.37 7.91591 4.30789C8.01252 4.27222 8.11163 4.25416 8.21054 4.25416C8.68048 4.25416 9.06279 4.63647 9.06279 5.10641C9.06279 5.57635 8.68048 5.95866 8.21054 5.95866C7.99628 5.95866 7.79094 5.8777 7.63237 5.73071C7.56211 5.6656 7.47232 5.63263 7.38214 5.63263C7.30339 5.63263 7.22435 5.65785 7.15801 5.70882C6.94532 5.87226 6.69102 5.95866 6.42254 5.95866C6.15813 5.95866 5.90707 5.87486 5.69643 5.71623C5.5721 5.62267 5.40249 5.61737 5.27262 5.70293C5.01871 5.87024 4.72334 5.95866 4.4185 5.95866C3.56081 5.95866 2.86302 5.26086 2.86302 4.40322C2.86302 3.54558 3.56076 2.84778 4.41845 2.84778Z" fill="#ED7E1B"/>
<path d="M25.4507 22.3499L19.3733 11.8236C19.2717 11.6476 19.0467 11.5873 18.8707 11.6889C18.6947 11.7905 18.6344 12.0156 18.736 12.1916L24.4947 22.1659H20.1998V21.1673C20.4016 21.14 20.603 21.1045 20.804 21.0609L21.3523 20.9418C21.5847 20.8913 21.76 20.6738 21.76 20.436C21.76 20.3335 21.7172 20.2357 21.642 20.1661C21.3254 19.8728 21.0246 19.5586 20.7434 19.2278L21.0589 19.1592C21.2856 19.11 21.4501 18.9059 21.4501 18.6739C21.4501 18.5714 21.4074 18.4736 21.3322 18.4039C21.0212 18.1159 20.7288 17.8051 20.4588 17.4758L20.7976 17.4022C21.0024 17.3577 21.14 17.167 21.1176 16.9586C21.1031 16.823 21.0239 16.7091 20.9126 16.6461C20.3842 16.1479 19.9329 15.5766 19.5703 14.9469L19.5025 14.8292C19.4369 14.7151 19.3152 14.6448 19.1836 14.6448C19.052 14.6448 18.9303 14.7151 18.8647 14.8292L18.7969 14.9469C18.4344 15.5766 17.983 16.148 17.4546 16.6461C17.3434 16.7091 17.2642 16.8231 17.2496 16.9587C17.2273 17.1671 17.3648 17.3577 17.5696 17.4022L17.9085 17.4758C17.6384 17.8052 17.3461 18.1159 17.035 18.404C16.9598 18.4736 16.9171 18.5715 16.9171 18.674C16.9171 18.9059 17.0816 19.11 17.3083 19.1592L17.6239 19.2278C17.3427 19.5586 17.0419 19.8728 16.7252 20.1661C16.65 20.2357 16.6072 20.3336 16.6072 20.436C16.6072 20.6739 16.7825 20.8913 17.015 20.9418L17.5633 21.0609C17.793 21.1108 18.0234 21.1494 18.2542 21.1779V22.1659H14.2148V20.6944C14.4828 20.6602 14.7502 20.6148 15.0169 20.5569L15.6867 20.4114C15.9341 20.3577 16.1205 20.1263 16.1205 19.8732C16.1205 19.7708 16.0778 19.6729 16.0026 19.6033C15.5804 19.2123 15.1812 18.7911 14.8109 18.3464L15.3285 18.234C15.5643 18.1828 15.742 17.9622 15.742 17.7209C15.742 17.6184 15.6993 17.5206 15.6241 17.4509C15.2091 17.0666 14.8211 16.6493 14.4659 16.2058L15.0093 16.0878C15.2186 16.0423 15.3592 15.8474 15.3363 15.6344C15.3211 15.4925 15.2367 15.3739 15.1187 15.3105C14.4642 14.6948 13.9052 13.9881 13.4567 13.2091L13.3739 13.0652C13.3083 12.9511 13.1867 12.8808 13.055 12.8808C12.9234 12.8808 12.8018 12.9511 12.7361 13.0651L12.6532 13.209C12.3224 13.7838 11.931 14.3187 11.4859 14.8072L9.63446 11.6005L11.1906 8.90515L12.6398 8.47447L13.7602 8.89205C13.9268 8.95416 14.1097 8.95225 14.275 8.88675L15.3145 8.47476L16.8399 8.90746L17.9471 10.8253C18.0153 10.9434 18.139 11.0094 18.2662 11.0094C18.3286 11.0094 18.3919 10.9935 18.4498 10.96C18.6258 10.8584 18.6861 10.6333 18.5845 10.4573L14.9181 4.10685C14.7295 3.78018 14.3917 3.58521 14.0146 3.58521C13.6374 3.58521 13.2997 3.78018 13.1111 4.10685L9.20956 10.8645L8.89913 10.3268C8.75218 10.0723 8.48895 9.92029 8.19501 9.92029C7.90106 9.92029 7.63788 10.0722 7.49089 10.3268L4.16192 16.0928C4.06031 16.2688 4.12061 16.4938 4.2966 16.5955C4.35455 16.6289 4.41784 16.6448 4.48025 16.6448C4.60742 16.6448 4.73112 16.5788 4.79927 16.4608L6.41756 13.6578L7.28452 13.4001L7.98349 13.6607C8.12249 13.7125 8.27498 13.711 8.4129 13.6563L9.0584 13.4004L9.97379 13.6601L10.9439 15.3404C10.8511 15.4077 10.7867 15.5123 10.7736 15.6343C10.7507 15.8473 10.8914 16.0423 11.1007 16.0877L11.644 16.2057C11.2888 16.6492 10.9008 17.0664 10.4858 17.4507C10.4106 17.5204 10.3679 17.6182 10.3679 17.7207C10.3679 17.962 10.5457 18.1826 10.7815 18.2339L11.2991 18.3463C10.9287 18.791 10.5294 19.2122 10.1073 19.6031C10.0321 19.6728 9.98939 19.7707 9.98939 19.8731C9.98939 20.1262 10.1759 20.3576 10.4232 20.4113L11.093 20.5568C11.3949 20.6223 11.6978 20.672 12.0012 20.7072V22.1659H8.0803V21.1673C8.28205 21.1399 8.48351 21.1045 8.68443 21.0608L9.23272 20.9417C9.46514 20.8912 9.64044 20.6738 9.64044 20.436C9.64044 20.3335 9.59771 20.2356 9.52249 20.166C9.20588 19.8728 8.90507 19.5586 8.62388 19.2277L8.93941 19.1592C9.16609 19.11 9.3306 18.9058 9.3306 18.6739C9.3306 18.5714 9.28787 18.4735 9.21265 18.4039C8.90168 18.1158 8.60931 17.8051 8.33926 17.4757L8.6781 17.4021C8.88289 17.3576 9.02047 17.167 8.99809 16.9586C8.98352 16.823 8.90438 16.7091 8.7931 16.646C8.26473 16.1479 7.81334 15.5765 7.4508 14.9469L7.38299 14.8291C7.31735 14.7151 7.19572 14.6448 7.06408 14.6448C6.93244 14.6448 6.81081 14.7151 6.74516 14.8291L6.6774 14.9469C6.31486 15.5766 5.86347 16.1479 5.3351 16.6461C5.22382 16.7091 5.14468 16.823 5.13011 16.9586C5.10773 17.167 5.24526 17.3577 5.4501 17.4022L5.78894 17.4758C5.51889 17.8051 5.22652 18.1159 4.9155 18.4039C4.84028 18.4735 4.79755 18.5714 4.79755 18.6739C4.79755 18.9059 4.96211 19.11 5.18874 19.1592L5.50432 19.2277C5.22313 19.5586 4.92227 19.8728 4.60566 20.166C4.53044 20.2356 4.48771 20.3335 4.48771 20.436C4.48771 20.6739 4.66301 20.8913 4.89543 20.9418L5.44378 21.0609C5.67349 21.1108 5.9039 21.1494 6.1347 21.1779V22.1659H1.50543L4.05648 17.7474C4.15809 17.5714 4.09779 17.3463 3.9218 17.2447C3.74581 17.1431 3.52075 17.2034 3.41913 17.3794L0.549361 22.3499C0.447748 22.5259 0.508048 22.7509 0.684042 22.8525C0.741987 22.886 0.80528 22.9019 0.86769 22.9019C0.894038 22.9019 25.132 22.9018 25.132 22.9018C25.2635 22.9018 25.3849 22.8317 25.4506 22.7178C25.5164 22.604 25.5164 22.4637 25.4507 22.3499ZM13.7484 4.47483C13.8285 4.33612 13.9612 4.32117 14.0145 4.32117C14.0679 4.32117 14.2006 4.33612 14.2807 4.47483L16.3116 7.99255L15.5093 7.76495C15.3584 7.72216 15.195 7.73035 15.0492 7.78819L14.0105 8.19989L12.8911 7.78265C12.8108 7.75272 12.7255 7.73767 12.6402 7.73767C12.5714 7.73767 12.5024 7.74747 12.4362 7.76715L11.7257 7.97828L13.7484 4.47483ZM17.6219 20.3205C17.9665 19.9692 18.2901 19.5948 18.5878 19.2027C18.6666 19.0989 18.6846 18.9611 18.6351 18.8405C18.5856 18.7199 18.476 18.6345 18.347 18.6159C18.2078 18.5959 18.0719 18.5717 17.943 18.5438C18.2764 18.1975 18.586 17.8264 18.867 17.4356C18.9429 17.33 18.9575 17.1924 18.9054 17.0733C18.8534 16.9542 18.7423 16.8714 18.6133 16.8555C18.5168 16.8436 18.4211 16.8289 18.3277 16.8116C18.6435 16.4734 18.9297 16.1091 19.1837 15.7222C19.4377 16.1091 19.7239 16.4733 20.0396 16.8116C19.9462 16.8289 19.8505 16.8436 19.754 16.8555C19.625 16.8714 19.514 16.9542 19.4619 17.0733C19.4098 17.1924 19.4244 17.33 19.5003 17.4356C19.7813 17.8264 20.0909 18.1975 20.4243 18.5438C20.2954 18.5717 20.1595 18.5959 20.0203 18.6159C19.8913 18.6345 19.7817 18.7199 19.7322 18.8405C19.6827 18.9611 19.7007 19.0988 19.7795 19.2027C20.0772 19.5949 20.4007 19.9692 20.7453 20.3205L20.6477 20.3417C19.6762 20.5527 18.691 20.5527 17.7195 20.3417L17.6219 20.3205ZM18.9902 21.2334C19.0547 21.2351 19.1191 21.236 19.1836 21.236C19.277 21.236 19.3704 21.2336 19.4639 21.2301V22.1659H18.9902V21.2334ZM9.21442 12.6797C9.08857 12.644 8.95227 12.6508 8.83069 12.6991L8.19099 12.9526L7.49844 12.6945C7.3775 12.6494 7.24272 12.6448 7.11908 12.6816L6.95265 12.731L8.12828 10.6948C8.14668 10.6629 8.17475 10.6563 8.19501 10.6563C8.21532 10.6563 8.24334 10.6629 8.26174 10.6948L9.44561 12.7453L9.21442 12.6797ZM10.985 19.7802C11.4425 19.3234 11.8708 18.8331 12.2622 18.3174C12.341 18.2135 12.359 18.0758 12.3095 17.9552C12.26 17.8346 12.1505 17.7492 12.0214 17.7307C11.8462 17.7054 11.6753 17.6749 11.5136 17.6397L11.3785 17.6104C11.8223 17.1605 12.2325 16.6746 12.602 16.1606C12.6779 16.0551 12.6925 15.9174 12.6404 15.7983C12.5883 15.6792 12.4772 15.5965 12.3483 15.5806C12.1779 15.5596 12.0099 15.5314 11.8487 15.497C12.3004 15.0274 12.7041 14.5148 13.0549 13.9653C13.4058 14.5148 13.8094 15.0274 14.2611 15.497C14.1 15.5314 13.9321 15.5596 13.7616 15.5806C13.6326 15.5965 13.5216 15.6792 13.4695 15.7983C13.4174 15.9174 13.432 16.0551 13.5078 16.1606C13.8774 16.6745 14.2876 17.1605 14.7315 17.6104L14.5963 17.6397C14.4346 17.6749 14.2637 17.7054 14.0885 17.7307C13.9595 17.7492 13.8499 17.8346 13.8004 17.9552C13.7509 18.0758 13.7689 18.2135 13.8477 18.3174C14.2391 18.833 14.6674 19.3234 15.125 19.7802L14.8606 19.8376C13.6624 20.0978 12.4474 20.0979 11.2492 19.8376L10.985 19.7802ZM12.7372 20.7627C12.8431 20.7664 12.9491 20.7689 13.055 20.7689C13.1963 20.7689 13.3376 20.765 13.4788 20.7584V22.1659H12.7372V20.7627ZM5.50246 20.3205C5.84699 19.9693 6.17057 19.5949 6.46829 19.2027C6.54709 19.0989 6.56509 18.9611 6.51559 18.8405C6.46613 18.7199 6.35652 18.6345 6.22748 18.6159C6.08828 18.5959 5.95238 18.5717 5.82344 18.5438C6.15688 18.1975 6.46642 17.8264 6.74751 17.4356C6.82337 17.33 6.83799 17.1924 6.78588 17.0733C6.73378 16.9542 6.62279 16.8714 6.4938 16.8555C6.39724 16.8436 6.30162 16.8289 6.2082 16.8116C6.52393 16.4734 6.81012 16.1091 7.06412 15.7222C7.31818 16.1091 7.60437 16.4733 7.92005 16.8116C7.82663 16.8289 7.73106 16.8436 7.63445 16.8555C7.50546 16.8714 7.39443 16.9542 7.34237 17.0733C7.29031 17.1924 7.30488 17.33 7.38074 17.4356C7.66178 17.8264 7.97132 18.1975 8.30482 18.5438C8.17583 18.5717 8.03992 18.5959 7.90077 18.6159C7.77173 18.6345 7.66217 18.7199 7.61266 18.8405C7.56316 18.9611 7.58116 19.0989 7.65996 19.2027C7.95768 19.5949 8.28122 19.9693 8.62574 20.3205L8.52821 20.3417C7.55673 20.5527 6.57152 20.5527 5.6 20.3417L5.50246 20.3205ZM6.87071 21.2334C6.93518 21.2351 6.99965 21.236 7.06412 21.236C7.15754 21.236 7.25096 21.2336 7.34438 21.2301V22.1659H6.87071V21.2334Z" fill="#ED7E1B"/>
</g>
</g>
</g>
<defs>
<clipPath id="clip0_12_383">
<rect width="25" height="23" fill="white" transform="translate(0.5 0.5)"/>
</clipPath>
<clipPath id="clip1_12_383">
<rect width="25" height="23" fill="white" transform="translate(0.5 0.5)"/>
</clipPath>
<clipPath id="clip2_12_383">
<rect width="25" height="23" fill="white" transform="translate(0.5 0.5)"/>
</clipPath>
</defs>
</svg>
