<svg width="56" height="55" viewBox="0 0 56 55" fill="none" xmlns="http://www.w3.org/2000/svg">
<path d="M0.765625 0.335815V54.6141H55.0439V0.335815H0.765625ZM5.70002 5.27021H50.1095V49.6797H21.7713C22.3931 48.4313 22.9507 47.141 23.2541 45.9691C23.5847 44.7009 25.4376 39.1695 25.4376 39.1695C26.3184 40.8546 28.8991 42.2781 31.6401 42.2781C39.8016 42.2781 45.1752 35.1405 45.1752 25.8219C45.1752 16.8907 37.8821 10.2046 28.4969 10.2046C16.8221 10.2046 10.6344 18.0379 10.6344 26.5744C10.6344 30.5392 12.7488 35.4736 16.119 37.0502C16.6371 37.2919 16.9036 37.1785 17.0244 36.6825C17.1133 36.3075 17.5722 34.4719 17.772 33.6232C17.81 33.4895 17.8125 33.3481 17.7792 33.2131C17.7459 33.0781 17.6779 32.9542 17.582 32.8535C16.4718 31.4965 15.5688 29.0096 15.5688 26.6855C15.5688 20.7149 20.0838 14.9416 27.7839 14.9416C34.4256 14.9416 39.0836 19.4714 39.0836 25.9453C39.0836 33.2605 35.8886 37.9655 31.0751 37.9655C28.4204 37.9655 25.9434 36.1348 26.57 33.4357C27.3299 30.2185 28.8053 26.7496 28.8053 24.4255C28.8053 18.5881 20.4983 19.3924 20.4983 27.1814C20.4983 29.5721 21.2927 31.2004 21.2927 31.2004C18.6725 42.89 17.9274 45.4411 18.1569 49.6797H5.70002V5.27021Z" fill="white"/>
</svg>
