<svg width="20" height="26" viewBox="0 0 20 26" fill="none" xmlns="http://www.w3.org/2000/svg">
<g clip-path="url(#clip0_12_401)">
<path d="M18.6353 18.1291C18.6324 18.1243 18.6296 18.1195 18.6267 18.1147C18.6057 18.0804 18.5842 18.0464 18.5622 18.0126C18.55 17.9939 18.5378 17.9753 18.5254 17.9569C18.5104 17.9345 18.4951 17.9122 18.4795 17.89C18.4595 17.8612 18.439 17.8328 18.4183 17.8046C18.4121 17.7962 18.4063 17.7876 18.4001 17.7792C18.3957 17.7733 18.391 17.7677 18.3865 17.7618C18.3615 17.7287 18.336 17.696 18.3101 17.6637C18.301 17.6523 18.292 17.641 18.2829 17.6298C18.257 17.5982 18.2306 17.5672 18.2039 17.5364C18.1928 17.5236 18.1818 17.5106 18.1706 17.4979C18.1483 17.4729 18.1254 17.4483 18.1026 17.4238C18.0855 17.4054 18.0687 17.387 18.0513 17.3689C18.0383 17.3555 18.0249 17.3424 18.0117 17.3291C17.5061 16.8173 16.883 16.4435 16.1814 16.237C16.1694 16.2334 16.1572 16.2305 16.1448 16.2282C16.1447 16.2282 12.8344 15.6132 12.8343 15.6132C12.8284 15.6121 12.8226 15.6118 12.8167 15.6109C12.6618 15.5857 12.5036 15.6064 12.3615 15.6687C12.2463 15.5271 12.1704 15.3328 12.1704 15.1532V14.5539C12.3796 14.4203 12.5828 14.2701 12.7789 14.1013C13.5992 13.3949 14.1159 12.3753 14.2273 11.2631C14.8297 11.2353 15.3111 10.7365 15.3111 10.1274V9.27354C15.3111 8.92822 15.1563 8.60869 14.8958 8.39541V6.43242C16.0928 5.84253 16.3529 5.15479 16.3529 4.66953C16.3529 3.83691 15.5774 2.79473 14.3291 1.94961C13.5293 1.40825 11.8549 0.5 9.62642 0.5C7.3979 0.5 5.72354 1.40825 4.92378 1.94961C3.67544 2.79468 2.89995 3.83687 2.89995 4.66953C2.89995 5.15479 3.16006 5.84253 4.35703 6.43242V8.39541C4.09658 8.60869 3.9418 8.92822 3.9418 9.27354V10.1274C3.9418 10.7365 4.42319 11.2353 5.02554 11.2631C5.13696 12.3753 5.65366 13.395 6.47402 14.1013C6.67012 14.2701 6.87329 14.4203 7.08252 14.5539V15.1532C7.08252 15.3328 7.00659 15.5271 6.89136 15.6686C6.74395 15.604 6.579 15.5833 6.4186 15.6132L3.10811 16.2282C3.09575 16.2305 3.08354 16.2334 3.07153 16.237C2.37031 16.4434 1.74751 16.8169 1.24194 17.3283C1.22842 17.3419 1.21475 17.3554 1.20142 17.3691C1.18433 17.3869 1.16768 17.4051 1.15088 17.4232C1.12778 17.448 1.10474 17.4728 1.08218 17.4981C1.07109 17.5106 1.06025 17.5234 1.04927 17.5361C1.02241 17.567 0.995898 17.5982 0.969971 17.6299C0.96084 17.641 0.951953 17.6523 0.94292 17.6636C0.916944 17.696 0.891358 17.7287 0.866358 17.7618C0.861914 17.7677 0.857227 17.7733 0.852783 17.7792C0.846533 17.7876 0.840772 17.7962 0.834619 17.8046C0.813867 17.8328 0.793408 17.8612 0.77334 17.89C0.757764 17.9122 0.742481 17.9346 0.727393 17.957C0.715039 17.9754 0.702881 17.9939 0.69082 18.0125C0.668799 18.0463 0.647217 18.0804 0.626172 18.1147C0.623291 18.1195 0.62041 18.1243 0.617578 18.129C0.212842 18.7959 0 19.5533 0 20.3432V20.7896C0 20.992 0.164014 21.156 0.366309 21.156C0.568603 21.156 0.732617 20.9919 0.732617 20.7896V20.3432C0.732617 19.9861 0.785547 19.6373 0.8875 19.304C1.10308 19.4754 1.3647 19.5667 1.63662 19.5667C1.68008 19.5667 1.72388 19.5644 1.76768 19.5596C2.08843 19.5252 2.37661 19.368 2.5791 19.1168L2.97773 18.6225C3.18022 18.3713 3.2728 18.0563 3.23843 17.7356C3.21108 17.4807 3.10591 17.2465 2.93794 17.0594C3.04321 17.0166 3.15073 16.978 3.26094 16.9449L5.37329 16.5525L7.04946 18.8981C7.21724 19.1328 7.47993 19.2622 7.75239 19.2622C7.8667 19.2622 7.98272 19.2394 8.09414 19.1921L8.20571 19.1447L8.69351 19.7118L7.98994 24.7673H3.38672V21.797C3.38672 21.5946 3.22271 21.4307 3.02041 21.4307C2.81812 21.4307 2.6541 21.5946 2.6541 21.797V24.7673H1.18877C0.937256 24.7673 0.732715 24.5627 0.732715 24.3113V22.4942C0.732715 22.2918 0.568701 22.1279 0.366406 22.1279C0.164111 22.1279 9.77889e-05 22.2919 9.77889e-05 22.4942V24.3113C9.77889e-05 24.9667 0.53335 25.5 1.18882 25.5H18.0642C18.7197 25.5 19.2529 24.9667 19.2529 24.3113V20.3433C19.2528 19.5533 19.04 18.796 18.6353 18.1291ZM2.40737 18.1627L2.00874 18.6571C1.9291 18.7559 1.81577 18.8177 1.6896 18.8313C1.56362 18.8448 1.43955 18.8084 1.34077 18.7288L1.18789 18.6055C1.2207 18.547 1.25508 18.4896 1.29092 18.4333C1.29131 18.4327 1.2918 18.432 1.29219 18.4313C1.32295 18.3831 1.35532 18.3361 1.38828 18.2896C1.39829 18.2755 1.40825 18.2615 1.41846 18.2475C1.44785 18.2073 1.47808 18.1678 1.50908 18.1289C1.51709 18.1188 1.52495 18.1086 1.53306 18.0987C1.56807 18.0558 1.6042 18.0139 1.64116 17.9727C1.65195 17.9606 1.66294 17.9488 1.67388 17.937C1.7105 17.8973 1.74771 17.8582 1.78613 17.8202C1.7894 17.8169 1.79263 17.8136 1.79595 17.8103C1.9376 17.6714 2.09116 17.5441 2.25557 17.43L2.33584 17.4947C2.43462 17.5744 2.49648 17.6877 2.51001 17.8139C2.52344 17.94 2.48706 18.0638 2.40737 18.1627ZM16.9171 17.4946L16.9974 17.4299C17.1618 17.544 17.3153 17.6713 17.457 17.8102C17.4603 17.8135 17.4635 17.8168 17.4668 17.8201C17.5052 17.8581 17.5424 17.8972 17.5791 17.9369C17.59 17.9487 17.601 17.9605 17.6118 17.9726C17.6487 18.0138 17.6849 18.0557 17.7199 18.0986C17.728 18.1085 17.7358 18.1187 17.7438 18.1288C17.7749 18.1677 17.8051 18.2072 17.8345 18.2474C17.8447 18.2613 17.8547 18.2754 17.8646 18.2895C17.8976 18.336 17.93 18.3831 17.9607 18.4312C17.9612 18.4319 17.9616 18.4325 17.962 18.4332C17.9979 18.4895 18.0323 18.5469 18.065 18.6054L17.9122 18.7287C17.8133 18.8083 17.6894 18.8446 17.5633 18.8312C17.4372 18.8177 17.3238 18.7558 17.2441 18.657L16.8455 18.1626C16.6811 17.9587 16.7132 17.6591 16.9171 17.4946ZM12.5434 16.4203C12.5439 16.4199 12.5444 16.4195 12.5449 16.4191L12.6407 16.3475C12.6578 16.3347 12.6796 16.3298 12.7004 16.3335L13.0846 16.4049L11.6074 18.4721C11.5704 18.5239 11.5037 18.5426 11.4452 18.5178L10.3561 18.0551L12.5434 16.4203ZM9.62642 17.6858L7.4918 16.0903C7.69346 15.8255 7.81519 15.4886 7.81519 15.1532V14.9387C8.38022 15.1754 8.98398 15.2992 9.62236 15.3063C9.62373 15.3063 9.6251 15.3063 9.62646 15.3063C9.62783 15.3063 9.6292 15.3063 9.63057 15.3063C10.2689 15.2992 10.8727 15.1754 11.4377 14.9387V15.1532C11.4377 15.4886 11.5595 15.8255 11.7611 16.0903L9.62642 17.6858ZM10.3395 18.8441L10.0058 19.232H9.24717L8.91348 18.8441L9.62646 18.5412L10.3395 18.8441ZM4.35703 5.59736C3.88623 5.30713 3.63262 4.98652 3.63262 4.66948C3.63262 4.00913 4.5148 3.11118 5.33447 2.5563C6.06475 2.06201 7.59336 1.23267 9.62642 1.23267C11.6595 1.23267 13.1881 2.06201 13.9184 2.55635C14.738 3.11123 15.6202 4.00918 15.6202 4.66953C15.6202 4.98652 15.3666 5.30718 14.8958 5.59741V4.93125C14.8958 4.41392 14.5457 3.96309 14.0442 3.83491C13.0958 3.59253 11.231 3.18589 9.39707 3.18516C9.39541 3.18516 9.39404 3.18516 9.39238 3.18516C7.80435 3.18516 6.22661 3.53481 5.18252 3.82827C4.69648 3.96489 4.35703 4.41284 4.35703 4.91758V5.59736ZM5.62749 6.8835C5.62236 6.88022 5.61714 6.877 5.61206 6.87373C5.58833 6.85854 5.56548 6.84326 5.54326 6.82793C5.53423 6.82168 5.52529 6.81543 5.5165 6.80913C5.49834 6.79624 5.48071 6.78325 5.46362 6.77026C5.45186 6.76128 5.44048 6.7523 5.42925 6.74331C5.41577 6.73257 5.40254 6.72183 5.38984 6.71104C5.37632 6.69951 5.36348 6.68804 5.35088 6.67651C5.34141 6.66787 5.33184 6.65928 5.32285 6.65063C5.3085 6.63677 5.29507 6.62295 5.28203 6.60913C5.27578 6.60254 5.26924 6.5959 5.26328 6.58931C5.26265 6.58857 5.26211 6.58784 5.26147 6.58716H11.4116C11.6139 6.58716 11.7779 6.42314 11.7779 6.22085C11.7779 6.01851 11.6139 5.85454 11.4116 5.85454H5.0897V4.91763C5.0897 4.7397 5.20938 4.58179 5.38076 4.53364C6.38062 4.25259 7.88765 3.91782 9.39238 3.91782C9.39375 3.91782 9.39536 3.91782 9.39673 3.91782C11.1506 3.91855 12.9477 4.31089 13.8628 4.54478C14.0396 4.58994 14.1631 4.74888 14.1631 4.93125V5.85449H13.1807C12.9784 5.85449 12.8144 6.01851 12.8144 6.2208C12.8144 6.42319 12.9784 6.58716 13.1807 6.58716H13.9916C13.9909 6.58789 13.9904 6.58862 13.9897 6.58931C13.9838 6.5959 13.9772 6.60254 13.971 6.60913C13.9579 6.62295 13.9445 6.63677 13.9302 6.65063C13.9212 6.65928 13.9116 6.66787 13.9021 6.67651C13.8896 6.68804 13.8767 6.69951 13.8632 6.71104C13.8505 6.72183 13.8373 6.73257 13.8238 6.74331C13.8125 6.7523 13.8012 6.76128 13.7894 6.77026C13.7723 6.78325 13.7547 6.79624 13.7365 6.80913C13.7277 6.81538 13.7188 6.82168 13.7098 6.82793C13.6875 6.84326 13.6647 6.85854 13.641 6.87373C13.6359 6.877 13.6307 6.88022 13.6255 6.8835C13.4733 6.9793 13.2919 7.07173 13.0846 7.15747C13.0802 7.15928 13.0763 7.16182 13.0721 7.16377C12.2872 7.4873 11.1078 7.73179 9.62651 7.73179C8.14526 7.73179 6.96582 7.4873 6.18096 7.16377C6.17671 7.16182 6.1728 7.15928 6.16846 7.15747C5.96113 7.07173 5.77974 6.9793 5.62749 6.8835ZM5.66206 7.73477V8.44844C5.46064 8.34404 5.25684 8.28789 5.08975 8.25786V7.40659C5.24687 7.51826 5.43584 7.62852 5.66206 7.73477ZM13.5908 7.73472C13.817 7.62852 14.006 7.51826 14.1631 7.40659V8.25776C13.996 8.28779 13.7922 8.34399 13.5908 8.44839V7.73472ZM6.95205 13.546C6.20181 12.9001 5.75869 11.932 5.73633 10.8901C5.73208 10.6909 5.56934 10.5316 5.37012 10.5316H5.07866C4.85581 10.5316 4.67446 10.3503 4.67446 10.1274V9.27354C4.67446 9.15063 4.72988 9.03677 4.8231 8.96089C4.95225 8.97231 5.19336 9.01103 5.39785 9.14092C5.3999 9.14224 5.4019 9.14351 5.40395 9.14482C5.43281 9.16348 5.46084 9.18403 5.48774 9.20654C5.49087 9.20913 5.49399 9.21177 5.49707 9.21445C5.51016 9.22573 5.523 9.23735 5.53545 9.24966C5.54634 9.2604 5.55771 9.27041 5.56934 9.27998C5.57275 9.28281 5.57622 9.28545 5.57969 9.28818C5.58848 9.29507 5.59741 9.30161 5.60654 9.30781C5.61016 9.31025 5.61367 9.31274 5.61733 9.31509C5.62974 9.3231 5.64229 9.33066 5.65522 9.33745C5.65517 9.3374 5.65527 9.3375 5.65522 9.33745C5.66835 9.34433 5.68198 9.35063 5.69561 9.3563C5.69937 9.35786 5.70317 9.35928 5.70698 9.36074C5.71733 9.36479 5.72773 9.36846 5.73828 9.37178C5.74224 9.37305 5.74614 9.37432 5.75015 9.37544C5.76397 9.37944 5.77788 9.38296 5.79194 9.38574C5.79169 9.38569 5.79219 9.38579 5.79194 9.38574C5.80639 9.38857 5.82168 9.39072 5.83633 9.39229C5.84028 9.39272 5.84424 9.39297 5.84814 9.39326C5.85923 9.39419 5.87036 9.39473 5.88154 9.39487C5.88408 9.39492 5.88657 9.39522 5.88906 9.39522C5.89067 9.39522 5.89233 9.39497 5.89395 9.39497C5.90835 9.39482 5.9228 9.39424 5.93726 9.39287C5.93765 9.39282 5.93804 9.39282 5.93838 9.39282C5.95317 9.39136 5.96797 9.38906 5.98272 9.38623C5.98687 9.38545 5.99102 9.38447 5.99517 9.38359C6.0061 9.3812 6.01699 9.37847 6.02788 9.37539C6.03218 9.37417 6.03647 9.373 6.04077 9.37163C6.05522 9.36704 6.06958 9.36206 6.08379 9.35615C6.27266 9.27729 6.39468 9.09429 6.39468 8.8898V8.01372C7.33794 8.31079 8.49775 8.4644 9.62642 8.4644C10.7551 8.4644 11.9149 8.31079 12.8582 8.01372V8.8898C12.8582 9.09429 12.9802 9.27734 13.169 9.35615C13.1833 9.36211 13.1978 9.36714 13.2123 9.37173C13.2164 9.373 13.2205 9.37412 13.2246 9.37534C13.2357 9.37852 13.2469 9.38135 13.2581 9.38374C13.262 9.38457 13.2659 9.3855 13.2699 9.38623C13.2995 9.39189 13.3294 9.39478 13.3592 9.39502C13.3607 9.39502 13.3623 9.39526 13.3638 9.39526C13.3661 9.39526 13.3685 9.39497 13.3708 9.39492C13.3823 9.39478 13.3938 9.39419 13.4052 9.39326C13.4089 9.39297 13.4126 9.39272 13.4163 9.39233C13.4456 9.38926 13.4746 9.38359 13.5029 9.37539C13.5067 9.37427 13.5105 9.37305 13.5144 9.37183C13.525 9.36851 13.5355 9.36475 13.546 9.36069C13.5498 9.35923 13.5536 9.35781 13.5573 9.35625C13.5709 9.35059 13.5844 9.34443 13.5975 9.33755C13.5974 9.3376 13.5976 9.3375 13.5975 9.33755C13.6104 9.33077 13.6232 9.32305 13.6356 9.31509C13.6393 9.31274 13.6428 9.3102 13.6465 9.30776C13.6556 9.30156 13.6645 9.29502 13.6732 9.28818C13.6768 9.28545 13.6803 9.28276 13.6837 9.27993C13.6953 9.27031 13.7067 9.26035 13.7175 9.24961C13.7298 9.2374 13.7426 9.22593 13.7556 9.21475C13.7589 9.21182 13.7624 9.20894 13.7658 9.20605C13.7778 9.196 13.7899 9.18628 13.8024 9.17705C13.8036 9.17617 13.8046 9.17529 13.8058 9.17441C13.8193 9.1645 13.833 9.15522 13.8469 9.14619C13.8506 9.14375 13.8543 9.14141 13.8581 9.13901C13.8705 9.13125 13.883 9.12373 13.8955 9.1166C13.8973 9.11558 13.8991 9.11445 13.901 9.11343C13.9153 9.10547 13.9297 9.09795 13.9442 9.09077C13.9478 9.08896 13.9514 9.08726 13.955 9.0855C13.968 9.07925 13.9811 9.07319 13.9941 9.06753C13.9959 9.06675 13.9977 9.06592 13.9995 9.06514C14.0145 9.05869 14.0295 9.05269 14.0445 9.04697C14.0472 9.04595 14.0499 9.04497 14.0525 9.04399C14.0668 9.03867 14.081 9.03364 14.0952 9.02896C14.0959 9.02871 14.0967 9.02842 14.0975 9.02817C14.1134 9.02295 14.1292 9.01812 14.1447 9.01362C14.1453 9.01348 14.1459 9.01328 14.1465 9.01313C14.2581 8.9811 14.3603 8.96699 14.4298 8.96079C14.5231 9.03672 14.5785 9.15054 14.5785 9.27349V10.1274C14.5785 10.3503 14.3972 10.5316 14.1743 10.5316H13.8829C13.6836 10.5316 13.5209 10.6909 13.5166 10.89C13.4943 11.932 13.0512 12.9 12.3009 13.546C11.5229 14.2159 10.6232 14.5616 9.62656 14.5736C8.62979 14.5617 7.73013 14.216 6.95205 13.546ZM7.80767 18.5178C7.74902 18.5426 7.68237 18.5238 7.64546 18.4722L6.16821 16.405L6.55244 16.3336C6.57334 16.3298 6.59507 16.3348 6.61211 16.3475L6.70796 16.4191C6.7085 16.4195 6.70898 16.4199 6.70952 16.4203L8.89668 18.0551L7.80767 18.5178ZM8.72959 24.7673L9.3979 19.9647H9.85493L10.5232 24.7673H8.72959ZM18.0642 24.7673H16.5989V21.797C16.5989 21.5946 16.4349 21.4307 16.2326 21.4307C16.0303 21.4307 15.8663 21.5946 15.8663 21.797V24.7673H11.263L10.5595 19.7118L11.0473 19.1447L11.1588 19.1921C11.2703 19.2394 11.3862 19.2622 11.5005 19.2622C11.7729 19.2622 12.0358 19.1328 12.2035 18.898L13.8796 16.5525L15.992 16.9449C16.1022 16.978 16.2098 17.0166 16.315 17.0594C15.9276 17.4922 15.8989 18.1559 16.275 18.6224L16.6737 19.1168C16.8762 19.368 17.1644 19.5252 17.4851 19.5596C17.529 19.5643 17.5727 19.5667 17.6162 19.5667C17.888 19.5667 18.1497 19.4753 18.3653 19.3039C18.4672 19.6372 18.5202 19.9861 18.5202 20.3431V24.3113C18.5203 24.5627 18.3156 24.7673 18.0642 24.7673Z" fill="#ED7E1B"/>
<path d="M14.6267 21.4307H12.6976C12.3676 21.4307 12.0991 21.6991 12.0991 22.0291V23.0569C12.0991 23.3869 12.3676 23.6553 12.6976 23.6553H14.6267C14.9567 23.6553 15.2251 23.3869 15.2251 23.0569V22.0291C15.2251 21.6991 14.9566 21.4307 14.6267 21.4307ZM12.8317 22.9226V22.1633H14.4924V22.9226H12.8317Z" fill="#ED7E1B"/>
<path d="M6.55488 21.4307H4.62573C4.29575 21.4307 4.02734 21.6991 4.02734 22.0291V23.0569C4.02734 23.3869 4.2958 23.6553 4.62573 23.6553H6.55488C6.88486 23.6553 7.15332 23.3869 7.15332 23.0569V22.0291C7.15337 21.6991 6.88486 21.4307 6.55488 21.4307ZM6.4207 22.9227H4.76001V22.1633H6.4207V22.9227Z" fill="#ED7E1B"/>
</g>
<defs>
<clipPath id="clip0_12_401">
<rect width="20" height="25" fill="white" transform="translate(0 0.5)"/>
</clipPath>
</defs>
</svg>
