<svg width="56" height="55" viewBox="0 0 56 55" fill="none" xmlns="http://www.w3.org/2000/svg">
<path d="M0.814941 0.335815V54.6141H55.0933V0.335815H0.814941ZM5.74933 5.27021H50.1589V49.6797H5.74933V5.27021ZM34.5909 14.2237C30.2733 14.2237 26.6761 18.1169 27.6802 22.9205C24.865 22.7794 22.111 22.0475 19.5972 20.7723C17.0833 19.4971 14.866 17.7072 13.0892 15.5189C12.4533 16.6017 12.1209 17.8358 12.127 19.0914C12.1262 20.2573 12.4136 21.4053 12.9637 22.4332C13.5138 23.4612 14.3096 24.3371 15.2801 24.9831C14.1596 24.9437 13.0644 24.6385 12.0851 24.0924V24.1739C12.0818 25.8088 12.6444 27.3946 13.6774 28.6619C14.7104 29.9292 16.1502 30.8 17.7522 31.1264C16.7087 31.3967 15.6194 31.4413 14.5572 31.2572C15.0104 32.6634 15.8919 33.8928 17.0784 34.7732C18.2649 35.6535 19.697 36.1409 21.1742 36.1669C18.6686 38.1314 15.575 39.196 12.391 39.1892C11.8208 39.1944 11.2508 39.1672 10.6837 39.1078C13.9272 41.1873 17.7013 42.288 21.5542 42.2781C34.5711 42.2781 41.6964 31.494 41.6964 22.136C41.6964 21.8325 41.6964 21.5241 41.6717 21.2206C43.0575 20.211 44.2579 18.9689 45.2195 17.5494C43.9243 18.1204 42.5501 18.4922 41.1437 18.6523C42.6198 17.7745 43.7251 16.3885 44.2524 14.7541C42.8657 15.5783 41.3464 16.1552 39.7621 16.4589C39.0996 15.7509 38.2983 15.1869 37.4081 14.8023C36.5179 14.4177 35.5581 14.2208 34.5884 14.2237H34.5909Z" fill="white"/>
</svg>
