<svg width="293" height="81" viewBox="0 0 293 81" fill="none" xmlns="http://www.w3.org/2000/svg">
<path d="M22.6285 80.3173C18.4315 80.3173 14.6858 79.7081 11.3914 78.4896C8.09699 77.2711 5.50207 75.4885 3.60666 73.1418C1.71124 70.8403 0.763534 68.0423 0.763534 64.7478C0.763534 63.4842 0.921485 62.1529 1.23739 60.7539C1.50816 59.4001 1.95945 57.9559 2.59126 56.4216C3.22306 54.9323 4.17077 53.5333 5.43438 52.2246C6.69799 50.9158 7.98416 49.8553 9.2929 49.043C10.6016 48.2307 11.617 47.8245 12.3391 47.8245H12.5422C12.9483 47.8245 13.1514 47.8922 13.1514 48.0276C13.1514 48.1178 13.0612 48.2307 12.8807 48.366C12.7001 48.5014 12.4971 48.6143 12.2714 48.7045C11.5042 49.0204 10.5339 49.6974 9.3606 50.7353C8.18724 51.7282 7.05902 52.9918 5.97593 54.5261C4.93796 56.0154 4.1482 57.6626 3.60666 59.4678C3.2005 60.957 2.99742 62.3786 2.99742 63.7324C2.99742 66.1694 3.60666 68.2905 4.82514 70.0956C6.04362 71.9008 7.6457 73.39 9.63137 74.5634C11.617 75.7819 13.8058 76.6845 16.1976 77.2711C18.5895 77.8578 20.9362 78.1511 23.2377 78.1511C24.1403 78.1511 25.0203 78.106 25.8778 78.0158C26.7352 77.9706 27.5476 77.8578 28.3147 77.6773C32.2861 76.7747 35.919 75.2629 39.2134 73.1418C42.5529 71.0659 45.5991 68.5838 48.352 65.6956C51.1049 62.8073 53.5869 59.6934 55.7983 56.3539C58.0547 53.0595 60.0629 49.7199 61.823 46.3352C63.583 42.9506 65.1625 39.7239 66.5615 36.6551C67.9605 33.5863 69.179 30.8786 70.217 28.5319C71.8416 25.0118 73.376 21.8528 74.8201 19.0548C76.3094 16.2117 77.5955 13.8199 78.6786 11.8793C79.8069 9.93877 80.6192 8.5849 81.1156 7.81771C78.9043 8.17874 76.4447 8.76541 73.737 9.57774C71.0744 10.3449 68.3667 11.3603 65.6138 12.6239C62.9061 13.8875 60.3563 15.3768 57.9645 17.0917C55.6177 18.8066 53.6321 20.7471 52.0074 22.9133C50.4279 25.0795 49.4125 27.4939 48.9612 30.1565C48.9161 30.5627 48.871 30.9237 48.8258 31.2396C48.8258 31.5555 48.8258 31.894 48.8258 32.255C48.8258 34.2407 49.2771 35.8879 50.1797 37.1966C51.0823 38.4602 52.3685 39.0921 54.0382 39.0921C54.7603 39.0921 55.6629 38.9115 56.746 38.5505C58.5511 37.9187 59.9276 37.0387 60.8753 35.9105C61.8681 34.7822 62.5676 33.5863 62.9738 32.3227C63.3799 31.0591 63.583 29.9534 63.583 29.0057C63.583 27.8775 63.4025 27.1329 63.0415 26.7719C62.7707 26.6365 62.6353 26.456 62.6353 26.2303C62.6353 25.8241 62.8835 25.6211 63.3799 25.6211C63.7861 25.6211 64.1471 25.8241 64.463 26.2303C64.8692 27.2231 65.0723 28.2611 65.0723 29.3442C65.0723 30.8335 64.6887 32.3227 63.9215 33.812C63.1994 35.2561 62.2066 36.5423 60.943 37.6705C59.7245 38.7987 58.3255 39.6336 56.746 40.1751C55.5275 40.6264 54.2639 40.8521 52.9551 40.8521C50.473 40.8521 48.3971 40.0398 46.7273 38.4151C45.0576 36.7453 44.2227 34.534 44.2227 31.7812C44.2227 31.1042 44.2904 30.4047 44.4258 29.6827C44.9222 26.5236 46.1407 23.7482 48.0812 21.3564C50.0218 18.9194 52.4136 16.8209 55.2567 15.0609C58.0998 13.2557 61.1235 11.7439 64.3276 10.5254C67.5318 9.30696 70.6908 8.33669 73.8047 7.61462C76.9637 6.84743 79.7843 6.30589 82.2664 5.98998C82.492 5.67408 82.8982 5.13254 83.4849 4.36534C84.0715 3.59815 84.7485 2.83096 85.5157 2.06376C86.2829 1.29657 87.05 0.800158 87.8172 0.574513C88.3137 0.439125 88.7875 0.371432 89.2388 0.371432C89.9157 0.371432 90.4798 0.551948 90.9311 0.91298C91.3824 1.22888 91.6081 1.7253 91.6081 2.40224C91.6081 3.80123 90.9988 4.81663 89.7803 5.44844C88.607 6.08024 87.366 6.59922 86.0572 7.00538C85.6511 7.00538 85.1321 7.09564 84.5003 7.27616C83.8685 7.45667 83.4172 7.54693 83.1464 7.54693C80.9351 11.3378 79.0622 15.2414 77.5278 19.2579C76.0386 23.2744 74.5719 27.4488 73.1278 31.7812C71.6836 36.0684 69.9913 40.491 68.0508 45.0491C66.1102 49.562 63.583 54.2328 60.4691 59.0616C58.4834 62.1755 56.1593 64.9509 53.4967 67.3879C50.8341 69.8249 48.0361 71.9008 45.1027 73.6157C42.2145 75.3757 39.3939 76.7747 36.641 77.8127C33.8882 78.8506 31.3835 79.5276 29.1271 79.8435C27.9988 80.024 26.8932 80.1368 25.8101 80.1819C24.727 80.2722 23.6665 80.3173 22.6285 80.3173ZM84.3649 5.8546C86.2152 5.53869 87.4562 5.1551 88.088 4.70381C88.7198 4.20739 89.0357 3.7561 89.0357 3.34994C89.0357 3.1243 88.9455 2.94378 88.7649 2.80839C88.6296 2.62788 88.4942 2.53762 88.3588 2.53762C88.088 2.40223 87.7044 2.53762 87.208 2.94378C86.7567 3.34994 86.2603 3.84636 85.7187 4.43304C85.2223 4.97458 84.771 5.44844 84.3649 5.8546ZM79.537 55.2708C77.8672 55.2708 76.3554 54.7292 75.0015 53.6461C73.6928 52.563 73.0384 50.9158 73.0384 48.7045C73.0384 46.6737 73.5348 44.5075 74.5276 42.2059C75.5205 39.8592 76.7841 37.8059 78.3185 36.0459C79.6272 34.5115 81.0939 33.2479 82.7185 32.255C84.3432 31.2622 85.8776 30.7658 87.3217 30.7658C88.3145 30.7658 89.172 31.0365 89.894 31.5781C90.6612 32.1648 91.0448 32.9996 91.0448 34.0827C91.0448 35.211 90.6161 36.452 89.7587 37.8059C88.9012 39.1597 87.6827 40.4234 86.1032 41.5967C85.4263 42.0931 84.5688 42.567 83.5309 43.0183C82.4929 43.4696 81.4549 43.8532 80.417 44.1691C79.379 44.4398 78.5216 44.5752 77.8446 44.5752C77.619 45.1168 77.3933 45.8388 77.1677 46.7414C76.9872 47.644 76.8969 48.5691 76.8969 49.5168C76.8969 50.6451 77.1226 51.6605 77.5738 52.563C78.0251 53.4656 78.86 53.9169 80.0785 53.9169C81.5678 53.9169 82.9216 53.4882 84.1401 52.6307C85.3586 51.7733 86.4417 50.7128 87.3894 49.4491C88.3371 48.1404 89.1269 46.8317 89.7587 45.5229C90.4356 44.2142 90.9771 43.1085 91.3833 42.2059C91.6541 41.5741 92.0151 41.2582 92.4664 41.2582C92.692 41.2582 92.8049 41.3711 92.8049 41.5967C92.8049 41.7772 92.7372 42.0029 92.6018 42.2736C91.97 43.6275 91.293 45.0716 90.571 46.606C89.8489 48.0953 88.9915 49.5168 87.9986 50.8707C87.0058 52.1794 85.8099 53.24 84.4109 54.0523C83.057 54.8646 81.4324 55.2708 79.537 55.2708ZM78.3185 43.3567C78.9503 43.3567 80.0108 43.1311 81.5001 42.6798C82.9893 42.1834 84.3432 41.4162 85.5617 40.3782C86.735 39.3403 87.6376 38.212 88.2694 36.9936C88.9012 35.7299 89.2171 34.6694 89.2171 33.812C89.2171 32.8191 88.8561 32.3227 88.134 32.3227C87.5925 32.3227 86.8478 32.6837 85.9001 33.4058C84.9524 34.1279 83.7791 35.3464 82.3801 37.0613C81.5226 38.1443 80.7103 39.3177 79.9431 40.5813C79.1759 41.8449 78.6344 42.7701 78.3185 43.3567ZM85.091 55.5415C86.7156 52.2471 88.2726 48.9979 89.7618 45.7937C91.2962 42.5444 92.8532 39.4531 94.4327 36.5197C95.3353 34.8951 96.0799 33.7668 96.6666 33.135C97.2984 32.4581 98.1333 32.1196 99.1712 32.1196C99.5322 32.1196 99.9158 32.1873 100.322 32.3227C100.728 32.413 101.134 32.4581 101.54 32.4581C101.811 32.4581 102.014 32.4355 102.15 32.3904C101.518 32.7514 100.706 33.654 99.7128 35.0981C98.7199 36.4971 97.7045 38.1218 96.6666 39.9721C95.6286 41.8224 94.7035 43.5598 93.8911 45.1845C94.7486 44.1465 95.6286 43.1085 96.5312 42.0706C97.4789 41.0326 98.5168 40.0398 99.6451 39.0921C100.728 38.1443 102.014 37.1741 103.504 36.1812C105.038 35.1433 106.527 34.2858 107.971 33.6089C109.415 32.932 110.566 32.5935 111.424 32.5935C111.74 32.5935 111.965 32.6161 112.101 32.6612C112.101 32.6612 111.852 33.1125 111.356 34.015C110.86 34.8725 110.228 36.0233 109.461 37.4674C108.739 38.8664 107.994 40.3782 107.227 42.0029C106.46 43.5824 105.76 45.1168 105.128 46.606C104.542 48.0501 104.158 49.2686 103.977 50.2615C103.842 50.8481 103.774 51.3897 103.774 51.8861C103.774 52.6082 103.91 53.082 104.181 53.3077C104.451 53.5333 104.745 53.6461 105.061 53.6461C105.918 53.6461 106.821 53.1948 107.768 52.2923C108.716 51.3446 109.619 50.1938 110.476 48.8399C111.379 47.486 112.168 46.1773 112.845 44.9137C113.567 43.6049 114.086 42.6121 114.402 41.9352C114.583 41.5741 114.718 41.3711 114.808 41.3259C114.899 41.2357 115.034 41.1905 115.215 41.1905C115.485 41.1905 115.621 41.3711 115.621 41.7321C115.621 41.9577 115.553 42.2059 115.418 42.4767C114.876 43.5147 114.222 44.7557 113.455 46.1999C112.732 47.644 111.898 49.0655 110.95 50.4645C110.002 51.8184 108.964 52.9692 107.836 53.9169C106.708 54.8195 105.489 55.2708 104.181 55.2708C103.278 55.2708 102.33 54.9549 101.337 54.3231C100.39 53.6913 99.9158 52.5179 99.9158 50.803C99.9158 50.3066 99.961 49.7876 100.051 49.2461C100.141 48.6594 100.299 48.0276 100.525 47.3506C100.886 46.4481 101.315 45.4778 101.811 44.4398C102.308 43.4019 103.12 41.9803 104.248 40.1751C104.564 39.6787 104.745 39.2951 104.79 39.0244C104.88 38.7536 104.925 38.5279 104.925 38.3474C104.925 37.8059 104.677 37.5351 104.181 37.5351C103.774 37.5351 103.165 37.7607 102.353 38.212C101.586 38.6633 100.615 39.4531 99.442 40.5813C98.3138 41.6644 96.9599 43.1988 95.3804 45.1845C93.846 47.1701 92.0634 50.1035 90.0326 53.9846C89.7167 54.5713 89.3557 54.8872 88.9495 54.9323C88.5885 54.9774 88.0695 55.0226 87.3926 55.0677C86.9413 55.1128 86.5126 55.1354 86.1064 55.1354C85.7002 55.1805 85.3618 55.3159 85.091 55.5415ZM154.05 61.9724C152.381 61.9724 150.666 61.7919 148.906 61.4309C147.191 61.0698 145.476 60.5283 143.761 59.8062C140.963 58.5877 138.707 56.9857 136.992 55C135.277 53.0595 134.036 50.8481 133.269 48.366C132.501 45.884 132.118 43.289 132.118 40.5813C132.118 37.7382 132.456 34.8951 133.133 32.0519C133.855 29.2088 134.848 26.5011 136.112 23.9287C137.375 21.3113 138.797 18.9871 140.376 16.9563C140.06 15.783 139.79 14.4291 139.564 12.8947C139.384 11.3603 139.293 9.80338 139.293 8.22386C139.293 5.83203 139.564 3.55302 140.106 1.38683C140.286 0.755027 140.602 0.439124 141.053 0.439124C141.369 0.439124 141.527 0.664769 141.527 1.11606C141.527 1.38683 141.505 1.58991 141.459 1.7253C141.369 2.40223 141.279 3.10173 141.189 3.82379C141.144 4.54586 141.121 5.29049 141.121 6.05768C141.121 7.59206 141.211 9.10388 141.392 10.5931C141.572 12.0824 141.775 13.4588 142.001 14.7224C145.295 10.4352 149.064 7.25359 153.306 5.17766C157.593 3.0566 162.083 1.99607 166.777 1.99607C167.995 1.99607 169.169 2.06377 170.297 2.19915C173.907 2.60531 176.863 3.50789 179.165 4.90689C181.466 6.26076 183.159 7.93053 184.242 9.9162C185.37 11.9019 185.934 14.0004 185.934 16.2117C185.934 18.3779 185.438 20.5215 184.445 22.6426C183.452 24.7636 182.008 26.7042 180.112 28.4642C178.217 30.1791 175.893 31.5781 173.14 32.6612C170.432 33.6991 167.363 34.2181 163.934 34.2181C163.166 34.2181 162.399 34.1956 161.632 34.1504C160.865 34.1053 160.03 34.015 159.127 33.8797C155.562 33.3381 152.313 32.1873 149.38 30.4273C146.446 28.6673 144.077 25.9595 142.272 22.3041C141.911 22.7554 141.414 23.6805 140.783 25.0795C140.151 26.4334 139.519 28.0806 138.887 30.0211C138.255 31.9617 137.714 34.0827 137.262 36.3843C136.811 38.6408 136.586 40.9198 136.586 43.2213C136.586 45.4327 136.879 47.5763 137.466 49.6522C138.052 51.683 139.068 53.4656 140.512 55C141.956 56.5795 143.919 57.7529 146.401 58.5201C147.62 58.8811 148.883 59.1519 150.192 59.3324C151.501 59.5129 152.832 59.6032 154.186 59.6032C156.803 59.6032 159.398 59.2647 161.971 58.5877C164.543 57.9108 166.935 56.918 169.146 55.6092C172.079 53.8943 174.336 51.9087 175.915 49.6522C177.495 47.3506 178.962 44.7783 180.315 41.9352C180.496 41.4839 180.744 41.2582 181.06 41.2582C181.286 41.2582 181.399 41.4162 181.399 41.7321C181.399 41.9577 181.308 42.2285 181.128 42.5444C180.18 44.5301 179.232 46.3578 178.285 48.0276C177.337 49.6522 176.231 51.164 174.968 52.563C173.704 53.962 172.102 55.3385 170.161 56.6923C167.95 58.2267 165.468 59.4903 162.715 60.4832C159.962 61.476 157.074 61.9724 154.05 61.9724ZM163.528 32.4581C166.641 32.4581 169.394 32.0068 171.786 31.1042C174.178 30.1565 176.186 28.938 177.811 27.4488C179.481 25.9144 180.722 24.2221 181.534 22.3718C182.391 20.5215 182.82 18.6486 182.82 16.7532C182.82 14.9029 182.391 13.1429 181.534 11.4731C180.677 9.80338 179.368 8.38182 177.608 7.20846C175.893 5.98998 173.682 5.20023 170.974 4.83919C169.981 4.70381 168.988 4.63612 167.995 4.63612C164.927 4.63612 161.903 5.29049 158.924 6.59922C155.991 7.86283 153.216 9.66799 150.598 12.0147C147.981 14.3163 145.656 17.024 143.626 20.1379C145.205 24.0641 147.417 26.9524 150.26 28.8027C153.148 30.6529 156.442 31.8037 160.143 32.255C161.316 32.3904 162.444 32.4581 163.528 32.4581ZM183.42 55C181.705 55 180.442 54.4359 179.63 53.3077C178.817 52.1343 178.411 50.7128 178.411 49.043C178.411 47.0122 178.885 44.8911 179.833 42.6798C180.735 40.6039 181.886 38.7085 183.285 36.9936C184.684 35.2787 186.196 33.9022 187.82 32.8643C189.445 31.7812 191.025 31.2396 192.559 31.2396C194.274 31.2396 195.538 31.8037 196.35 32.932C197.162 34.0602 197.568 35.4817 197.568 37.1966C197.568 39.2726 197.094 41.3936 196.147 43.5598C195.605 44.7783 194.838 46.1322 193.845 47.6214C192.852 49.0655 191.724 50.3968 190.461 51.6153C190.731 52.1117 191.115 52.5405 191.611 52.9015C192.108 53.2174 192.785 53.3754 193.642 53.3754C194.725 53.3754 195.741 52.9241 196.688 52.0215C197.681 51.1189 198.584 50.0358 199.396 48.7722C200.208 47.4635 200.93 46.1547 201.562 44.846C202.194 43.5373 202.713 42.4767 203.119 41.6644C203.255 41.3936 203.48 41.2582 203.796 41.2582C203.977 41.2582 204.112 41.3485 204.202 41.529C204.293 41.6644 204.27 41.89 204.135 42.2059C203.864 42.8829 203.413 43.8983 202.781 45.2522C202.149 46.5609 201.382 47.9373 200.479 49.3814C199.577 50.7804 198.539 51.9764 197.365 52.9692C196.192 53.962 194.883 54.4585 193.439 54.4585C192.446 54.4585 191.589 54.3005 190.867 53.9846C190.145 53.6236 189.558 53.1948 189.107 52.6984C188.159 53.4205 187.211 53.9846 186.264 54.3908C185.316 54.7969 184.368 55 183.42 55ZM184.436 53.5107C185.654 53.5107 186.963 52.9241 188.362 51.7507C188.001 51.2092 187.73 50.6451 187.55 50.0584C187.369 49.4717 187.279 48.9302 187.279 48.4337C187.279 47.6214 187.459 46.9219 187.82 46.3352C188.227 45.7486 188.836 45.4552 189.648 45.4552C190.235 45.4552 190.709 45.6809 191.07 46.1322C191.476 46.5383 191.679 47.0122 191.679 47.5537C191.679 47.6891 191.656 47.8245 191.611 47.9599C191.611 48.0501 191.589 48.163 191.544 48.2984C192.311 47.2604 193.033 46.0419 193.71 44.6429C195.199 41.4388 195.944 38.7987 195.944 36.7228C195.944 35.6848 195.741 34.8725 195.334 34.2858C194.928 33.6991 194.319 33.4058 193.507 33.4058C192.559 33.4058 191.521 33.812 190.393 34.6243C189.31 35.4366 188.249 36.5197 187.211 37.8736C186.218 39.2274 185.338 40.7393 184.571 42.409C183.849 43.9434 183.262 45.4327 182.811 46.8768C182.405 48.2758 182.202 49.4943 182.202 50.5322C182.202 51.4348 182.382 52.1569 182.743 52.6984C183.104 53.24 183.669 53.5107 184.436 53.5107ZM206.095 55C204.38 55 203.117 54.4359 202.304 53.3077C201.492 52.1343 201.086 50.7128 201.086 49.043C201.086 47.0122 201.56 44.8911 202.507 42.6798C203.41 40.6039 204.561 38.7085 205.96 36.9936C207.359 35.2787 208.87 33.9022 210.495 32.8643C212.12 31.7812 213.699 31.2396 215.234 31.2396C216.949 31.2396 218.212 31.8037 219.024 32.932C219.837 34.0602 220.243 35.4817 220.243 37.1966C220.243 39.2726 219.769 41.3936 218.821 43.5598C218.28 44.7783 217.513 46.1322 216.52 47.6214C215.527 49.0655 214.399 50.3968 213.135 51.6153C213.406 52.1117 213.79 52.5405 214.286 52.9015C214.782 53.2174 215.459 53.3754 216.317 53.3754C217.4 53.3754 218.415 52.9241 219.363 52.0215C220.356 51.1189 221.258 50.0358 222.071 48.7722C222.883 47.4635 223.605 46.1547 224.237 44.846C224.869 43.5373 225.388 42.4767 225.794 41.6644C225.929 41.3936 226.155 41.2582 226.471 41.2582C226.651 41.2582 226.787 41.3485 226.877 41.529C226.967 41.6644 226.945 41.89 226.809 42.2059C226.538 42.8829 226.087 43.8983 225.455 45.2522C224.824 46.5609 224.056 47.9373 223.154 49.3814C222.251 50.7804 221.213 51.9764 220.04 52.9692C218.867 53.962 217.558 54.4585 216.114 54.4585C215.121 54.4585 214.263 54.3005 213.541 53.9846C212.819 53.6236 212.233 53.1948 211.781 52.6984C210.834 53.4205 209.886 53.9846 208.938 54.3908C207.99 54.7969 207.043 55 206.095 55ZM207.11 53.5107C208.329 53.5107 209.638 52.9241 211.037 51.7507C210.676 51.2092 210.405 50.6451 210.224 50.0584C210.044 49.4717 209.954 48.9302 209.954 48.4337C209.954 47.6214 210.134 46.9219 210.495 46.3352C210.901 45.7486 211.511 45.4552 212.323 45.4552C212.909 45.4552 213.383 45.6809 213.744 46.1322C214.151 46.5383 214.354 47.0122 214.354 47.5537C214.354 47.6891 214.331 47.8245 214.286 47.9599C214.286 48.0501 214.263 48.163 214.218 48.2984C214.985 47.2604 215.707 46.0419 216.384 44.6429C217.874 41.4388 218.618 38.7987 218.618 36.7228C218.618 35.6848 218.415 34.8725 218.009 34.2858C217.603 33.6991 216.994 33.4058 216.181 33.4058C215.234 33.4058 214.196 33.812 213.067 34.6243C211.984 35.4366 210.924 36.5197 209.886 37.8736C208.893 39.2274 208.013 40.7393 207.246 42.409C206.524 43.9434 205.937 45.4327 205.486 46.8768C205.08 48.2758 204.877 49.4943 204.877 50.5322C204.877 51.4348 205.057 52.1569 205.418 52.6984C205.779 53.24 206.343 53.5107 207.11 53.5107ZM237.773 55.4739C236.554 55.3385 235.449 54.7744 234.456 53.7815C233.508 52.7436 232.854 51.3671 232.493 49.6522C232.448 49.3363 232.403 49.0655 232.357 48.8399C232.357 48.5691 232.357 48.2758 232.357 47.9599C232.357 46.1547 232.764 44.7106 233.576 43.6275C234.388 42.4993 235.133 41.9126 235.81 41.8675C236.532 41.9126 237.412 41.7547 238.45 41.3936C239.488 40.9875 240.39 40.4459 241.158 39.769C242.466 38.731 243.121 37.6705 243.121 36.5874C243.121 35.4592 242.466 34.8951 241.158 34.8951C240.436 34.8951 239.51 35.1433 238.382 35.6397C237.299 36.1361 236.035 36.9936 234.591 38.212C232.786 39.7464 230.913 41.7998 228.973 44.3721C228.702 44.9588 228.386 45.8388 228.025 47.0122C227.664 48.1404 227.348 49.3138 227.077 50.5322C226.852 51.7507 226.739 52.7887 226.739 53.6461C226.739 54.3231 226.852 54.7744 227.077 55H222.813C222.316 55 222.068 54.7969 222.068 54.3908C222.068 54.2554 222.091 54.1426 222.136 54.0523C222.181 53.962 222.226 53.7815 222.271 53.5107C222.903 51.164 223.738 48.9527 224.776 46.8768C225.814 44.8009 226.852 42.6121 227.89 40.3105C226.31 43.2439 224.866 45.8388 223.557 48.0953C222.294 50.3066 221.323 51.7282 220.646 52.36C220.556 52.4502 220.443 52.4953 220.308 52.4953C220.127 52.4953 220.015 52.3825 219.97 52.1569C219.879 51.9312 219.924 51.7056 220.105 51.4799C221.053 50.2163 222.136 48.4789 223.354 46.2676C224.618 44.0562 225.949 41.5967 227.348 38.889C228.747 36.1361 230.169 33.3607 231.613 30.5627C233.057 27.7647 234.456 25.1246 235.81 22.6426C237.209 20.1605 238.472 18.062 239.601 16.3471C240.413 15.1286 241.18 14.2711 241.902 13.7747C242.624 13.2332 243.369 12.9624 244.136 12.9624H244.475C244.881 12.9624 245.332 13.0301 245.828 13.1655C246.37 13.3009 246.866 13.3234 247.318 13.2332C246.46 13.9101 245.422 15.0158 244.204 16.5502C242.985 18.0845 241.699 19.9123 240.345 22.0333C238.991 24.1544 237.615 26.4108 236.216 28.8027C234.862 31.1945 233.576 33.5638 232.357 35.9105C231.906 36.813 231.477 37.7607 231.071 38.7536C230.665 39.7464 230.282 40.7393 229.92 41.7321C230.868 40.5587 231.951 39.3403 233.17 38.0767C234.388 36.813 235.652 35.6623 236.961 34.6243C238.314 33.5412 239.646 32.7514 240.954 32.255C242.444 31.7135 243.685 31.4427 244.678 31.4427C245.716 31.4427 246.46 31.6909 246.912 32.1873C247.408 32.6837 247.656 33.3156 247.656 34.0827C247.656 34.9402 247.318 35.9782 246.641 37.1966C245.964 38.37 245.039 39.3854 243.865 40.2428C242.872 40.9198 241.835 41.5065 240.751 42.0029C239.668 42.4993 238.382 42.8152 236.893 42.9506C236.622 43.5824 236.419 44.2368 236.284 44.9137C236.193 45.5455 236.148 46.1773 236.148 46.8091C236.148 48.5691 236.554 50.1261 237.367 51.4799C238.179 52.7887 239.24 53.4431 240.548 53.4431C241.18 53.4431 241.857 53.2625 242.579 52.9015C243.346 52.5405 244.136 51.9312 244.948 51.0738C245.851 50.1712 246.754 48.885 247.656 47.2153C248.604 45.5455 249.552 43.7178 250.499 41.7321C250.68 41.3711 250.883 41.1905 251.109 41.1905C251.379 41.1905 251.515 41.3711 251.515 41.7321C251.515 41.9126 251.447 42.1383 251.312 42.409C250.003 45.4327 248.739 47.8471 247.521 49.6522C246.347 51.4123 245.197 52.7436 244.068 53.6461C242.985 54.5036 241.925 55.0451 240.887 55.2708C239.849 55.4964 238.811 55.5641 237.773 55.4739ZM262.431 55.4739C261.212 55.3385 260.107 54.7744 259.114 53.7815C258.166 52.7436 257.512 51.3671 257.151 49.6522C257.106 49.3363 257.06 49.0655 257.015 48.8399C257.015 48.5691 257.015 48.2758 257.015 47.9599C257.015 46.1547 257.421 44.7106 258.234 43.6275C259.046 42.4993 259.791 41.9126 260.468 41.8675C261.19 41.9126 262.07 41.7547 263.108 41.3936C264.146 40.9875 265.048 40.4459 265.815 39.769C267.124 38.731 267.779 37.6705 267.779 36.5874C267.779 35.4592 267.124 34.8951 265.815 34.8951C265.093 34.8951 264.168 35.1433 263.04 35.6397C261.957 36.1361 260.693 36.9936 259.249 38.212C257.444 39.7464 255.571 41.7998 253.631 44.3721C253.36 44.9588 253.044 45.8388 252.683 47.0122C252.322 48.1404 252.006 49.3138 251.735 50.5322C251.51 51.7507 251.397 52.7887 251.397 53.6461C251.397 54.3231 251.51 54.7744 251.735 55H247.47C246.974 55 246.726 54.7969 246.726 54.3908C246.726 54.2554 246.748 54.1426 246.794 54.0523C246.839 53.962 246.884 53.7815 246.929 53.5107C247.561 51.164 248.396 48.9527 249.434 46.8768C250.472 44.8009 251.51 42.6121 252.548 40.3105C250.968 43.2439 249.524 45.8388 248.215 48.0953C246.952 50.3066 245.981 51.7282 245.304 52.36C245.214 52.4502 245.101 52.4953 244.966 52.4953C244.785 52.4953 244.673 52.3825 244.627 52.1569C244.537 51.9312 244.582 51.7056 244.763 51.4799C245.71 50.2163 246.794 48.4789 248.012 46.2676C249.276 44.0562 250.607 41.5967 252.006 38.889C253.405 36.1361 254.827 33.3607 256.271 30.5627C257.715 27.7647 259.114 25.1246 260.468 22.6426C261.867 20.1605 263.13 18.062 264.258 16.3471C265.071 15.1286 265.838 14.2711 266.56 13.7747C267.282 13.2332 268.027 12.9624 268.794 12.9624H269.132C269.539 12.9624 269.99 13.0301 270.486 13.1655C271.028 13.3009 271.524 13.3234 271.976 13.2332C271.118 13.9101 270.08 15.0158 268.862 16.5502C267.643 18.0845 266.357 19.9123 265.003 22.0333C263.649 24.1544 262.273 26.4108 260.874 28.8027C259.52 31.1945 258.234 33.5638 257.015 35.9105C256.564 36.813 256.135 37.7607 255.729 38.7536C255.323 39.7464 254.939 40.7393 254.578 41.7321C255.526 40.5587 256.609 39.3403 257.828 38.0767C259.046 36.813 260.31 35.6623 261.618 34.6243C262.972 33.5412 264.304 32.7514 265.612 32.255C267.102 31.7135 268.343 31.4427 269.335 31.4427C270.373 31.4427 271.118 31.6909 271.569 32.1873C272.066 32.6837 272.314 33.3156 272.314 34.0827C272.314 34.9402 271.976 35.9782 271.299 37.1966C270.622 38.37 269.696 39.3854 268.523 40.2428C267.53 40.9198 266.492 41.5065 265.409 42.0029C264.326 42.4993 263.04 42.8152 261.551 42.9506C261.28 43.5824 261.077 44.2368 260.941 44.9137C260.851 45.5455 260.806 46.1773 260.806 46.8091C260.806 48.5691 261.212 50.1261 262.025 51.4799C262.837 52.7887 263.897 53.4431 265.206 53.4431C265.838 53.4431 266.515 53.2625 267.237 52.9015C268.004 52.5405 268.794 51.9312 269.606 51.0738C270.509 50.1712 271.411 48.885 272.314 47.2153C273.262 45.5455 274.209 43.7178 275.157 41.7321C275.338 41.3711 275.541 41.1905 275.766 41.1905C276.037 41.1905 276.172 41.3711 276.172 41.7321C276.172 41.9126 276.105 42.1383 275.969 42.409C274.661 45.4327 273.397 47.8471 272.179 49.6522C271.005 51.4123 269.854 52.7436 268.726 53.6461C267.643 54.5036 266.583 55.0451 265.545 55.2708C264.507 55.4964 263.469 55.5641 262.431 55.4739ZM279.642 55.2708C277.973 55.2708 276.461 54.7292 275.107 53.6461C273.798 52.563 273.144 50.9158 273.144 48.7045C273.144 46.6737 273.64 44.5075 274.633 42.2059C275.626 39.8592 276.889 37.8059 278.424 36.0459C279.733 34.5115 281.199 33.2479 282.824 32.255C284.449 31.2622 285.983 30.7658 287.427 30.7658C288.42 30.7658 289.277 31.0365 289.999 31.5781C290.767 32.1648 291.15 32.9996 291.15 34.0827C291.15 35.211 290.721 36.452 289.864 37.8059C289.007 39.1597 287.788 40.4234 286.209 41.5967C285.532 42.0931 284.674 42.567 283.636 43.0183C282.598 43.4696 281.56 43.8532 280.522 44.1691C279.484 44.4398 278.627 44.5752 277.95 44.5752C277.724 45.1168 277.499 45.8388 277.273 46.7414C277.093 47.644 277.002 48.5691 277.002 49.5168C277.002 50.6451 277.228 51.6605 277.679 52.563C278.13 53.4656 278.965 53.9169 280.184 53.9169C281.673 53.9169 283.027 53.4882 284.245 52.6307C285.464 51.7733 286.547 50.7128 287.495 49.4491C288.442 48.1404 289.232 46.8317 289.864 45.5229C290.541 44.2142 291.083 43.1085 291.489 42.2059C291.759 41.5741 292.12 41.2582 292.572 41.2582C292.797 41.2582 292.91 41.3711 292.91 41.5967C292.91 41.7772 292.843 42.0029 292.707 42.2736C292.075 43.6275 291.398 45.0716 290.676 46.606C289.954 48.0953 289.097 49.5168 288.104 50.8707C287.111 52.1794 285.915 53.24 284.516 54.0523C283.162 54.8646 281.538 55.2708 279.642 55.2708ZM278.424 43.3567C279.056 43.3567 280.116 43.1311 281.605 42.6798C283.095 42.1834 284.449 41.4162 285.667 40.3782C286.84 39.3403 287.743 38.212 288.375 36.9936C289.007 35.7299 289.322 34.6694 289.322 33.812C289.322 32.8191 288.961 32.3227 288.239 32.3227C287.698 32.3227 286.953 32.6837 286.005 33.4058C285.058 34.1279 283.884 35.3464 282.485 37.0613C281.628 38.1443 280.816 39.3177 280.048 40.5813C279.281 41.8449 278.74 42.7701 278.424 43.3567Z" fill="black"/>
</svg>
